<svg width="22" height="23" viewBox="0 0 22 23" fill="none" xmlns="http://www.w3.org/2000/svg">
<path fill-rule="evenodd" clip-rule="evenodd" d="M6.94969 15.7361C11.1876 20.1655 15.1135 20.6505 16.2658 20.6948C17.6592 20.7484 19.0805 19.5597 19.6947 18.3415C18.7144 17.1389 17.4375 16.2062 16.0384 15.195C15.2138 16.0568 14.1969 17.6581 12.8418 17.0852C12.0723 16.76 10.1701 15.8445 8.50806 14.1073C6.84593 12.37 5.97005 10.3818 5.65886 9.57765C5.1103 8.15998 6.64575 7.0952 7.47095 6.2327C6.50394 4.74614 5.6263 3.37741 4.47818 2.4042C3.29755 3.04975 2.15354 4.524 2.20545 5.99873C2.24785 7.20307 2.71187 11.3067 6.94969 15.7361ZM16.1847 22.9967C14.5969 22.9357 10.1003 22.2868 5.39132 17.3649C0.682335 12.443 0.0615058 7.74306 0.00308137 6.08344C-0.0859548 3.55481 1.76728 1.09791 3.909 0.138531C4.41155 -0.0865905 5.02025 -0.0453923 5.50144 0.321475C7.27294 1.6721 8.49515 3.71963 9.54479 5.32287C9.99196 6.00593 9.91813 6.93255 9.35041 7.52595L7.85572 9.08816C8.20262 9.88897 8.91036 11.27 10.0664 12.4783C11.2225 13.6868 12.5438 14.4264 13.31 14.7891L14.8039 13.2276C15.3721 12.6337 16.2625 12.5554 16.9175 13.0297C18.4822 14.1628 20.3199 15.4222 21.6599 17.2158C22.0362 17.7196 22.0922 18.3784 21.8677 18.926C20.9456 21.1749 18.6122 23.0901 16.1847 22.9967Z" fill="white"/>
<path d="M20.0295 18.5103L20.1391 18.2931L19.9854 18.1045C18.9688 16.8575 17.6503 15.8973 16.258 14.8911L15.9933 14.6997L15.7674 14.9357C15.6226 15.0871 15.4681 15.2648 15.3144 15.4417C15.2427 15.5242 15.1712 15.6064 15.1009 15.6858C14.8715 15.9448 14.6402 16.1902 14.3998 16.3894C13.9189 16.7879 13.4762 16.9463 12.9878 16.7398L12.9878 16.7398C12.2416 16.4244 10.3915 15.5333 8.77902 13.848C7.16567 12.1617 6.31161 10.2254 6.00859 9.44232C5.80165 8.90751 5.96711 8.42605 6.34843 7.92373C6.53986 7.67156 6.7753 7.42931 7.0233 7.18935C7.09912 7.11599 7.17773 7.04137 7.25652 6.96659C7.42623 6.80551 7.59674 6.64366 7.74191 6.49194L7.9473 6.27726L7.78529 6.02822C7.75743 5.98539 7.72961 5.9426 7.70183 5.89987C6.77429 4.47326 5.88446 3.10464 4.72066 2.11814L4.52423 1.95163L4.29828 2.07517C3.65206 2.42852 3.02709 3.00083 2.56866 3.68092C2.11056 4.36051 1.80121 5.17461 1.83068 6.01192L2.20545 5.99873L1.83068 6.01192C1.87554 7.28612 2.36349 11.485 6.67873 15.9953L6.94969 15.7361L6.67873 15.9953C10.9957 20.5074 15.0203 21.0222 16.2514 21.0696C17.0579 21.1006 17.843 20.773 18.4936 20.2979C19.1459 19.8215 19.6946 19.1745 20.0295 18.5103ZM4.0623 0.480764L4.06231 0.480762C4.44681 0.308522 4.90837 0.340868 5.27408 0.619689C6.80733 1.78867 7.91788 3.50297 8.90005 5.01909C9.0119 5.19175 9.12209 5.36184 9.23105 5.52826C9.58487 6.06874 9.52377 6.80228 9.07946 7.26671C9.07945 7.26671 9.07945 7.26672 9.07945 7.26672L7.58476 8.82891L7.41266 9.00878L7.51162 9.23722C7.86791 10.0597 8.597 11.485 9.79548 12.7376C10.9945 13.9909 12.36 14.7543 13.1495 15.128L13.394 15.2438L13.581 15.0483L15.0748 13.4868C15.0748 13.4868 15.0748 13.4868 15.0748 13.4868C15.5142 13.0277 16.1951 12.9695 16.6976 13.3334C16.8102 13.415 16.9238 13.4969 17.0382 13.5794C18.529 14.6545 20.1535 15.826 21.3594 17.4403C21.6517 17.8315 21.6986 18.3498 21.5207 18.7837C20.6414 20.9283 18.4289 22.7078 16.1991 22.622C14.69 22.564 10.2921 21.9448 5.66228 17.1056C1.0308 12.2647 0.43382 7.66016 0.377849 6.07025L0.00308137 6.08344L0.377849 6.07024C0.295079 3.71956 2.03504 1.38887 4.0623 0.480764Z" stroke="#017077" stroke-opacity="0.72" stroke-width="0.75"/>
</svg>
